# xmcd
#
# Track frame offsets: 
#        150
#        18030
#        35840
#        52899
#        63955
#        82826
#        108073
#        134287
#        157377
#        166466
#        186899
#        206770
#        218267
#
# Disc length: 3133 seconds
#
# Revision: 0
# Processed by: cddbd v1.5.2PL0 Copyright (c) Steve Scherf et al.
# Submitted via: ExactAudioCopy v1.3
#
DISCID=a60c3b0d
DTITLE=Roy Rogers - Slideways
DYEAR=2002
DGENRE=Blues
TTITLE0=Avalanche
TTITLE1=Smoke and Mirrors
TTITLE2=Razor's Edge
TTITLE3=Duckwalk
TTITLE4=I'm With You
TTITLE5=Talkin Walls
TTITLE6=Crescent Steps
TTITLE7=No Destination
TTITLE8=Swamp Dream
TTITLE9=There Is Only You
TTITLE10=Precious Moments
TTITLE11=Gumbo Funk
TTITLE12=For The Children
EXTD=
EXTT0=
EXTT1=
EXTT2=
EXTT3=
EXTT4=
EXTT5=
EXTT6=
EXTT7=
EXTT8=
EXTT9=
EXTT10=
EXTT11=
EXTT12=
PLAYORDER=
